<?xml version="1.0" standalone="no"?>
<!DOCTYPE svg PUBLIC "-//W3C//DTD SVG 20010904//EN"
 "http://www.w3.org/TR/2001/REC-SVG-20010904/DTD/svg10.dtd">
<svg version="1.0" xmlns="http://www.w3.org/2000/svg"
 width="856.000000pt" height="1280.000000pt" viewBox="0 0 856.000000 1280.000000"
 preserveAspectRatio="xMidYMid meet">
<metadata>
Created by potrace 1.15, written by Peter Selinger 2001-2017
</metadata>
<g transform="translate(0.000000,1280.000000) scale(0.100000,-0.100000)"
fill="#9c27b0" stroke="none">
<path d="M5187 12790 c-16 -5 -39 -20 -52 -34 -19 -21 -33 -26 -72 -26 -28 0
-63 -8 -83 -18 -26 -14 -68 -21 -155 -26 -66 -3 -163 -15 -215 -26 -52 -11
-127 -22 -167 -24 -40 -1 -78 -8 -85 -13 -7 -6 -56 -21 -108 -33 -195 -47
-453 -209 -727 -458 l-83 -75 0 -69 c0 -241 -60 -481 -166 -663 -165 -281
-383 -487 -997 -939 -103 -77 -211 -164 -238 -195 -70 -79 -149 -196 -275
-411 -59 -102 -148 -250 -197 -328 -102 -166 -243 -419 -377 -677 -265 -513
-405 -736 -571 -911 l-68 -72 33 -88 c70 -188 182 -377 292 -494 l33 -35 -9
-120 c-12 -157 -23 -233 -71 -515 -35 -197 -52 -269 -109 -445 -38 -115 -110
-374 -160 -575 -105 -417 -164 -631 -221 -804 -40 -120 -129 -346 -167 -425
-23 -47 -21 -49 19 -21 46 33 171 88 371 161 103 38 232 87 288 109 55 22 109
40 119 40 51 0 62 -54 71 -365 6 -201 13 -284 25 -325 29 -97 29 -104 2 -136
-26 -30 -61 -50 -251 -139 -92 -43 -109 -56 -252 -194 -85 -82 -170 -168 -189
-192 -115 -149 -253 -590 -309 -995 -27 -194 -45 -452 -56 -784 l-10 -325 186
-365 c182 -357 227 -436 243 -425 5 2 12 35 16 72 9 91 52 218 119 350 114
228 261 439 543 781 307 372 668 882 773 1092 23 47 63 118 87 159 73 120 294
533 461 861 171 336 213 411 250 453 23 24 52 36 52 22 0 -8 -89 -203 -129
-284 -21 -42 -55 -123 -76 -181 -21 -58 -113 -267 -205 -465 -92 -198 -178
-391 -190 -430 -32 -96 -104 -266 -150 -351 -36 -66 -39 -77 -49 -205 -6 -73
-15 -323 -21 -554 -15 -629 -52 -1125 -111 -1498 -11 -70 -19 -135 -17 -145 2
-11 28 18 77 88 199 283 302 400 526 599 306 272 788 639 1035 788 288 175
458 298 518 375 22 29 84 136 137 238 169 321 230 416 438 685 l124 160 -40
110 c-100 278 -167 482 -167 508 0 92 664 787 731 765 6 -2 23 -33 38 -68 43
-100 208 -531 253 -660 60 -169 133 -308 281 -530 149 -224 264 -358 339 -396
53 -27 58 -26 101 22 33 39 78 54 162 54 33 0 67 5 75 10 11 7 3 10 -30 10
-58 1 -119 15 -136 32 -10 10 -10 25 -3 63 6 28 19 99 30 159 23 124 41 176
63 176 9 0 34 16 56 37 69 62 82 109 16 59 -67 -51 -83 -27 -73 107 9 116 19
122 106 75 37 -21 71 -35 74 -32 3 3 -6 30 -19 60 -28 63 -31 122 -8 165 12
25 20 30 37 25 100 -30 378 -34 410 -7 23 19 115 41 171 41 38 0 53 -5 70 -23
43 -46 155 -41 164 6 7 38 -66 88 -145 102 -51 8 -55 27 -20 95 39 78 125 85
196 16 20 -20 40 -36 44 -36 15 0 6 36 -19 71 -20 30 -27 55 -34 131 -11 114
-16 128 -44 128 -21 0 -46 17 -46 31 0 11 30 39 41 39 6 0 6 -7 -1 -19 -15
-28 -13 -33 10 -21 27 14 25 36 -5 76 -40 52 -59 59 -94 33 -24 -18 -37 -20
-76 -15 -25 4 -62 13 -82 20 l-36 12 69 19 c87 23 110 34 68 35 -16 0 -70 16
-119 36 -48 19 -102 36 -120 37 -22 2 -41 13 -64 40 -37 42 -58 45 -135 22
-62 -19 -147 -19 -189 -1 -18 8 -44 27 -59 44 -28 30 -67 42 -140 42 -42 0
-89 16 -100 33 -15 23 -8 84 12 110 24 30 25 39 4 78 -15 30 -15 31 23 64 32
28 139 72 150 61 2 -2 -1 -23 -6 -47 -24 -101 -3 -137 95 -164 120 -32 136
-39 159 -69 33 -41 59 -27 63 34 3 37 -1 47 -27 71 -23 21 -31 37 -31 63 0 46
-18 55 -82 44 -58 -11 -78 -6 -78 19 0 10 -9 32 -20 50 l-19 32 29 18 c32 20
113 96 179 167 55 59 73 66 171 66 l79 0 10 -36 c12 -42 7 -57 -32 -106 -34
-42 -33 -73 2 -73 33 0 64 45 67 97 2 24 3 47 3 51 1 5 18 7 39 5 29 -2 37 -7
37 -22 0 -25 42 -55 90 -66 32 -7 46 -4 94 21 64 34 146 44 146 19 0 -8 -30
-33 -67 -55 -74 -45 -97 -69 -98 -102 0 -34 -14 -28 -45 18 -63 89 -133 92
-239 8 -48 -39 -51 -40 -54 -19 -3 18 -9 21 -40 18 -37 -3 -37 -4 -36 -46 1
-56 29 -93 83 -111 55 -17 75 -55 69 -127 -3 -38 -12 -63 -34 -91 l-29 -38 33
25 c109 82 145 86 291 36 82 -28 206 -56 250 -56 6 0 21 10 33 22 20 20 32 23
101 21 72 -2 78 -1 65 14 -7 9 -13 26 -13 37 0 18 -7 21 -50 24 -27 2 -54 7
-58 11 -13 13 81 89 137 110 28 10 73 22 99 26 42 6 50 4 84 -23 21 -16 58
-38 83 -49 25 -11 73 -41 106 -66 34 -25 75 -52 91 -61 17 -8 51 -34 77 -58
52 -48 54 -68 7 -92 -63 -33 -293 -50 -319 -24 -7 7 -12 32 -12 56 0 24 -5 63
-11 87 -6 23 -9 51 -7 61 3 17 8 15 36 -13 19 -19 32 -42 32 -57 0 -28 25 -46
64 -46 31 0 33 13 7 73 -30 69 -96 107 -137 79 -36 -24 -45 -117 -19 -212 19
-71 19 -67 -12 -96 -20 -18 -24 -27 -15 -36 12 -12 15 -11 162 27 81 21 114
11 135 -40 29 -69 13 -185 -31 -224 -23 -20 -35 -22 -78 -18 -60 5 -96 39 -96
90 0 77 64 102 114 46 34 -37 60 -35 64 7 4 45 -30 84 -74 84 -68 0 -154 -63
-154 -112 0 -54 -36 -20 -50 47 l-6 30 -100 0 -99 0 3 35 2 35 -21 -33 c-12
-18 -33 -35 -48 -38 -14 -3 -31 -7 -38 -9 -20 -6 -27 -76 -15 -144 11 -65 42
-117 90 -149 19 -13 22 -13 28 3 10 26 -14 92 -46 129 -37 41 -37 54 -5 66 59
22 115 -34 115 -115 0 -35 5 -57 15 -65 8 -7 15 -18 15 -24 0 -6 -29 -46 -65
-89 -36 -43 -65 -85 -65 -92 0 -23 27 -18 48 10 28 35 62 45 152 45 107 0 177
-16 207 -48 25 -27 25 -28 42 6 17 31 69 52 132 52 58 0 102 21 118 57 15 33
14 48 -13 128 -26 77 -25 90 5 75 23 -13 39 -5 39 17 0 12 7 14 29 10 25 -5
28 -4 23 19 -2 13 3 35 12 49 10 14 15 34 12 43 -6 19 20 59 31 48 4 -4 11
-64 15 -134 4 -70 11 -143 16 -162 5 -19 8 -51 7 -70 0 -19 -2 -57 -3 -84 l-2
-48 -25 16 c-32 21 -74 21 -82 -1 -10 -26 -23 -33 -71 -33 -29 0 -44 -5 -49
-16 -10 -26 12 -37 94 -44 87 -8 113 -16 113 -34 0 -28 -33 -122 -55 -155 -14
-20 -41 -85 -60 -146 -33 -98 -75 -185 -91 -185 -3 0 -5 28 -4 63 4 90 2 100
-15 93 -19 -7 -19 3 -2 29 26 38 26 53 1 86 -13 18 -24 46 -24 62 0 42 -17 67
-45 67 -45 0 -62 -30 -70 -121 -13 -143 -28 -157 -92 -86 -21 24 -61 60 -89
80 -56 40 -203 111 -255 122 l-33 7 46 -51 c32 -35 50 -67 59 -101 16 -62 32
-77 91 -88 48 -9 118 -47 118 -63 0 -5 -18 0 -40 11 -53 27 -96 26 -137 -6
-35 -26 -67 -77 -56 -88 4 -3 -6 -20 -22 -36 l-28 -30 26 -24 c48 -45 6 -78
-73 -58 -22 5 -42 6 -45 2 -7 -12 93 -58 142 -66 75 -11 105 1 194 81 46 41
104 84 129 96 25 11 52 24 60 28 8 4 23 23 32 42 22 42 44 59 76 59 23 0 24
-2 17 -42 -3 -24 -9 -57 -12 -75 -4 -26 -11 -33 -37 -39 -62 -13 -311 -160
-423 -251 -23 -18 -86 -63 -139 -98 -87 -58 -98 -63 -116 -51 -10 8 -28 12
-38 9 -22 -6 -42 -56 -35 -87 4 -21 -16 -39 -132 -118 -38 -26 -133 -63 -133
-51 0 9 59 89 76 104 35 28 74 93 74 121 0 69 -75 158 -133 158 -31 0 -31 0
-9 -16 36 -25 42 -46 27 -90 -8 -21 -14 -62 -15 -91 0 -61 -15 -106 -33 -100
-6 2 -12 21 -12 41 -1 39 -30 76 -61 76 -19 0 -24 -13 -39 -99 -17 -94 -12
-118 24 -124 14 -2 -12 -5 -59 -6 -91 -1 -156 -16 -232 -50 -41 -19 -64 -22
-167 -20 l-120 1 93 137 c94 137 166 268 166 301 0 22 -45 60 -70 60 -10 0
-28 9 -41 20 l-24 20 32 -6 c25 -5 33 -2 43 16 7 12 10 36 7 54 -6 39 -50 166
-57 166 -11 0 -69 -106 -79 -145 -17 -64 -14 -119 10 -149 26 -33 23 -58 -21
-200 -16 -54 -30 -110 -30 -123 0 -15 -18 -46 -45 -77 -54 -64 -78 -107 -65
-120 5 -5 69 -8 142 -7 119 2 139 5 188 28 46 21 77 27 185 33 181 11 233 29
418 144 54 33 106 66 115 71 43 26 131 96 155 124 14 17 54 50 89 73 35 22 90
62 123 88 116 90 266 180 300 180 9 0 33 9 55 20 21 11 46 17 54 14 10 -4 19
1 23 14 5 12 33 38 63 59 65 46 89 85 131 218 17 55 44 119 60 143 62 96 96
366 65 516 -9 43 -16 111 -16 151 0 86 -10 119 -62 202 -42 66 -189 213 -241
240 -18 9 -59 35 -92 58 -33 24 -80 53 -105 65 -25 12 -64 38 -88 57 -23 19
-48 33 -55 30 -6 -2 -29 11 -50 29 -20 19 -47 34 -58 34 -18 0 -21 5 -16 33 2
17 10 46 17 63 15 36 7 96 -17 120 -15 15 -18 15 -30 -2 -21 -28 -33 -82 -39
-174 -3 -47 -7 -100 -10 -119 l-5 -34 -35 34 c-37 36 -41 60 -19 99 24 41 18
66 -22 100 -50 40 -125 75 -194 89 -47 10 -69 9 -125 -4 -82 -19 -104 -15
-169 33 -91 68 -114 75 -209 70 -122 -8 -195 -49 -332 -188 -92 -93 -106 -104
-123 -93 -16 10 -20 9 -24 -8 -3 -10 -14 -19 -24 -19 -10 0 -54 -20 -97 -45
-44 -25 -81 -45 -82 -45 -12 0 -46 171 -68 345 -38 299 -94 1014 -106 1340 -7
211 -24 334 -41 303 -5 -9 -18 -55 -29 -104 -67 -287 -47 -780 70 -1651 100
-758 182 -1441 187 -1578 6 -140 -3 -245 -33 -395 -15 -75 -104 -421 -111
-430 -9 -11 -180 217 -264 353 -94 151 -235 431 -302 602 -73 186 -204 564
-260 750 -127 423 -161 615 -172 970 -10 339 -20 392 -194 1095 -121 490 -162
667 -191 840 -42 254 -45 304 -45 765 0 514 -1 509 85 680 58 117 156 244 238
310 31 25 98 65 147 89 50 24 121 67 159 95 103 78 159 103 242 109 93 6 131
-12 179 -83 62 -94 129 -276 166 -449 11 -55 28 -117 37 -136 l17 -35 3 75 c4
88 -22 302 -44 367 -9 25 -13 47 -11 50 9 8 81 -34 163 -94 349 -260 423 -578
323 -1378 -11 -88 -49 -335 -85 -550 -35 -214 -66 -421 -69 -460 l-5 -70 16
35 c22 47 75 287 128 580 58 315 68 365 116 540 49 180 60 267 62 456 1 216
-16 346 -61 465 -50 132 -241 356 -436 512 -55 44 -117 96 -137 115 l-36 35
28 23 c15 13 49 66 76 116 26 51 67 122 91 159 51 80 83 151 83 186 0 13 -13
55 -29 91 -49 112 -49 112 4 173 26 29 54 67 61 85 16 37 19 134 5 134 -5 0
-23 -17 -40 -37 -25 -32 -32 -35 -41 -23 -14 22 -12 107 5 170 19 70 19 150 0
303 -19 162 -45 522 -45 630 0 100 9 129 55 177 41 42 66 114 100 286 48 240
45 314 -20 409 -19 28 -60 68 -92 90 -109 76 -113 82 -113 174 0 76 -2 82 -31
116 -34 38 -56 47 -39 16 26 -50 -1 -41 -68 23 -31 29 -73 59 -93 65 -76 25
-508 40 -572 21z m96 -87 c9 -9 -22 -43 -40 -43 -13 0 -18 31 -6 43 8 9 38 9
46 0z m-653 -128 c117 -31 117 -31 187 0 62 28 64 28 94 -27 14 -26 -15 -49
-143 -113 -146 -72 -197 -111 -244 -181 -21 -31 -56 -70 -78 -86 -38 -27 -45
-29 -98 -23 -99 12 -257 -51 -357 -141 -78 -70 -84 -91 -91 -300 -6 -206 -9
-214 -83 -233 -88 -22 -277 -185 -341 -293 -14 -24 -37 -92 -51 -152 -30 -125
-41 -149 -107 -233 -86 -109 -91 -130 -85 -327 3 -97 13 -210 22 -261 27 -140
27 -139 -22 -143 -35 -3 -44 1 -57 20 -13 20 -35 129 -36 176 0 27 -17 9 -33
-35 -24 -66 -21 -99 13 -162 16 -30 27 -58 24 -63 -3 -4 -18 -8 -33 -8 -57 0
-176 -102 -221 -190 -27 -52 -24 -105 5 -105 16 0 20 7 21 36 2 44 29 99 49
99 19 0 19 -15 1 -160 -8 -63 -12 -128 -9 -144 7 -37 77 -105 146 -144 29 -16
89 -42 134 -56 45 -15 86 -33 92 -40 15 -17 -26 -99 -139 -276 -156 -246 -247
-452 -344 -778 -73 -245 -77 -289 -83 -847 -8 -717 12 -1094 73 -1374 14 -67
23 -128 20 -136 -2 -7 -25 -22 -49 -33 -111 -49 -243 -155 -278 -224 -28 -56
-25 -96 12 -134 17 -18 29 -40 27 -50 -2 -13 -39 23 -133 131 -237 274 -366
380 -389 319 -12 -30 -6 -135 20 -366 21 -190 23 -233 12 -237 -7 -2 -150 -73
-318 -157 -168 -84 -519 -250 -780 -369 -618 -283 -650 -296 -650 -280 0 7 25
81 55 164 30 83 61 182 69 221 8 39 58 198 111 353 53 155 140 410 192 567 52
157 101 299 109 315 24 53 35 163 44 449 6 192 13 295 22 326 8 25 40 86 70
137 31 51 59 104 62 119 6 23 -17 64 -177 303 l-183 276 58 90 c32 50 109 179
170 289 61 109 130 223 153 255 23 31 220 358 437 726 217 369 450 762 518
875 l123 205 196 165 c391 329 818 699 889 769 93 93 106 113 112 180 5 53 6
56 38 62 64 13 115 87 132 194 13 81 -2 146 -45 186 -18 18 -31 37 -29 44 3 6
27 29 54 49 29 22 50 46 50 57 0 11 -16 51 -35 89 -43 86 -44 98 -2 66 74 -56
125 -36 153 62 19 67 44 97 92 113 39 13 101 0 122 -26 28 -34 27 -11 -3 56
-29 65 -30 72 -17 97 9 14 51 57 94 94 88 76 119 84 178 48 52 -31 66 -27 80
26 11 40 21 52 72 87 39 26 63 37 71 31 7 -5 33 -24 59 -42 l46 -33 10 26 c6
15 10 36 10 47 0 16 4 19 23 14 12 -4 65 -18 117 -31z m1046 -802 c87 -46 164
-174 164 -274 0 -45 -5 -62 -30 -96 -30 -41 -30 -53 1 -53 45 0 32 -39 -24
-75 -67 -44 -97 -76 -97 -105 0 -33 23 -55 80 -75 58 -21 78 -40 85 -84 4 -20
13 -58 21 -85 14 -44 14 -49 -2 -61 -16 -11 -16 -17 -3 -76 28 -127 13 -501
-27 -681 -13 -57 -22 -73 -58 -106 -82 -76 -211 -105 -417 -95 l-126 6 -6 -26
c-4 -14 -26 -49 -50 -79 -58 -70 -91 -128 -122 -213 -52 -141 -55 -143 -162
-115 -61 16 -108 20 -228 20 -209 0 -219 9 -131 125 45 59 46 69 1 61 -45 -9
-90 12 -145 67 -50 50 -80 105 -80 145 0 63 87 279 143 354 33 44 41 41 187
-73 165 -128 174 -114 25 42 -110 115 -116 126 -132 244 l-8 60 -55 5 c-69 7
-86 17 -145 82 -68 76 -109 166 -109 242 1 65 21 119 49 130 29 11 95 6 152
-10 69 -20 147 -14 174 12 10 11 41 69 68 131 56 129 73 154 157 243 101 107
156 181 190 256 39 86 63 105 170 134 142 38 225 49 339 47 90 -2 118 -7 151
-24z m-1631 -456 c-14 -24 -35 -53 -48 -65 -25 -24 -92 -43 -86 -24 4 12 140
130 151 131 4 1 -4 -18 -17 -42z m-679 -736 c-38 -74 -46 -83 -46 -53 0 19 69
136 77 129 2 -3 -12 -37 -31 -76z m2694 -686 c0 -9 -11 -27 -25 -40 -25 -26
-55 -33 -55 -13 0 16 51 68 67 68 7 0 13 -7 13 -15z m-2918 -125 c-48 -45 -82
-63 -82 -42 0 18 34 54 68 72 64 33 69 21 14 -30z m848 14 c64 -33 136 -91
126 -102 -3 -2 -19 7 -36 22 -35 29 -65 34 -74 11 -3 -8 -1 -39 5 -68 5 -28 7
-65 4 -82 -11 -52 -26 -95 -34 -95 -5 0 -16 53 -26 118 -10 64 -25 143 -35
175 -10 33 -14 57 -8 57 6 0 40 -16 78 -36z m900 -340 c73 -18 238 -92 258
-116 17 -21 6 -28 -97 -72 -190 -82 -314 -203 -406 -398 -64 -137 -68 -161
-73 -508 -5 -368 7 -580 49 -880 16 -118 37 -264 45 -325 24 -177 92 -501 208
-997 78 -331 99 -481 126 -908 15 -232 36 -408 51 -426 6 -8 10 -17 7 -20 -8
-8 -361 359 -471 490 -176 210 -252 347 -264 472 -9 100 -28 110 -268 149
-165 28 -233 31 -303 14 -40 -10 -61 -26 -144 -111 l-98 -99 0 163 c0 184 -16
306 -60 477 -17 63 -39 169 -51 235 -20 122 -54 273 -129 575 -62 249 -70 317
-80 646 -10 322 -17 412 -30 399 -11 -11 -34 -148 -55 -323 -19 -160 -26 -178
-50 -132 -28 54 -45 112 -55 180 -10 68 -31 104 -51 84 -9 -9 -9 -28 -1 -75
16 -91 20 -125 37 -308 31 -335 55 -433 271 -1095 144 -440 150 -477 119 -716
-40 -302 -62 -363 -171 -469 -40 -40 -79 -70 -86 -68 -7 3 -21 31 -30 63 -34
112 -108 462 -108 512 0 28 -9 81 -21 118 -50 164 -74 384 -90 842 -13 364 -1
856 26 1062 27 213 85 516 116 605 69 203 329 646 379 646 9 0 29 -14 45 -30
46 -48 117 -65 270 -65 105 0 140 4 180 19 80 31 153 78 260 168 114 96 169
135 240 171 146 73 334 92 505 51z m-834 -3609 c102 -18 170 -45 178 -71 3
-11 10 -58 15 -107 19 -164 75 -247 405 -597 252 -267 406 -510 406 -642 0
-36 -6 -47 -48 -87 -26 -25 -83 -72 -127 -103 -88 -63 -316 -287 -421 -413
-36 -44 -138 -176 -226 -293 -193 -258 -271 -344 -327 -361 -23 -6 -94 -16
-158 -22 -137 -11 -220 -29 -299 -64 -31 -14 -65 -25 -75 -25 -41 0 -156 189
-258 422 -79 181 -117 296 -152 468 -33 158 -97 417 -109 439 -5 10 -42 -20
-137 -110 -71 -68 -171 -153 -222 -189 -171 -118 -246 -177 -314 -247 -77 -79
-378 -475 -413 -544 -25 -49 -129 -145 -196 -180 -108 -56 -194 -43 -228 33
-33 75 -84 336 -110 563 -18 156 -37 264 -87 480 -28 120 -47 224 -47 260 0
85 39 161 128 250 120 120 295 194 612 260 212 44 324 72 341 87 19 15 16 49
-10 120 -16 43 -26 97 -31 168 -4 58 -16 172 -27 254 -18 129 -18 151 -6 163
12 12 24 6 89 -46 83 -67 237 -224 380 -388 51 -59 102 -117 114 -130 28 -30
128 -209 143 -255 23 -72 136 -238 162 -238 3 0 58 48 120 106 271 253 608
504 676 504 31 0 37 -32 29 -150 -7 -118 -28 -233 -61 -337 -29 -91 -31 -113
-9 -113 66 0 200 613 154 701 -13 24 -64 25 -122 2 -116 -45 -261 -164 -566
-465 -117 -116 -215 -208 -216 -207 -11 13 -46 134 -46 157 1 69 52 138 279
376 130 137 206 229 383 465 83 111 103 121 239 121 59 0 146 -7 195 -15z
m3455 -717 c23 -45 22 -103 -1 -103 -9 0 -20 22 -32 65 -9 36 -17 70 -18 77 0
24 31 0 51 -39z m-77 -98 c1 -31 5 -35 31 -40 25 -4 30 -10 32 -35 0 -17 2
-35 2 -42 1 -7 19 -17 41 -23 30 -8 40 -16 40 -31 0 -30 -28 -35 -58 -10 -66
52 -73 55 -138 53 -102 -4 -127 24 -84 93 21 34 93 77 119 73 10 -2 15 -16 15
-38z m886 -478 c-7 -3 -16 2 -21 9 -16 25 -9 32 12 13 13 -12 16 -20 9 -22z
m-1909 -18 c9 -11 22 -14 41 -10 48 10 37 -31 -24 -85 -53 -47 -53 -47 -52
-105 1 -33 4 -71 8 -85 7 -22 2 -34 -29 -68 -21 -23 -43 -41 -51 -41 -19 0
-27 58 -22 163 4 72 11 105 32 152 41 91 68 113 97 79z m401 -64 c20 -6 60
-26 88 -45 60 -40 70 -42 70 -15 0 21 15 27 25 10 10 -16 -14 -49 -48 -67 -43
-22 -137 -22 -171 0 -14 10 -29 32 -34 50 -11 42 -40 46 -81 11 -44 -37 -64
-79 -57 -120 6 -30 4 -35 -24 -49 -32 -16 -38 -33 -18 -53 28 -28 84 -10 134
44 55 59 146 55 185 -10 24 -39 26 -137 4 -156 -10 -8 -35 -10 -83 -5 -51 5
-87 2 -137 -10 -52 -13 -73 -15 -92 -6 -51 23 -72 154 -33 204 15 19 20 40 20
84 0 52 3 63 29 87 50 47 145 67 223 46z m1535 -141 c25 -25 -27 -82 -57 -64
-15 9 -12 36 7 57 19 21 34 23 50 7z m-1346 -68 c22 -18 22 -19 3 -28 -23 -13
-64 0 -64 20 0 32 27 35 61 8z m1184 -117 c14 -6 45 -53 45 -69 0 -14 -24 -2
-51 24 -41 41 -38 62 6 45z m-5322 -126 c13 -35 39 -121 56 -193 67 -279 83
-328 142 -447 59 -120 204 -349 259 -411 4 -5 40 3 79 17 108 39 188 55 334
66 206 16 260 36 384 142 74 62 129 127 189 221 57 87 73 88 102 5 28 -82 56
-180 103 -357 l38 -145 -67 -74 c-107 -118 -177 -208 -271 -347 -169 -249
-311 -508 -311 -567 0 -40 -46 -79 -163 -137 -220 -110 -557 -319 -702 -436
-49 -40 -106 -79 -125 -87 -76 -32 -394 -302 -598 -506 -140 -140 -284 -309
-359 -418 -31 -46 -58 -83 -59 -81 -2 1 6 65 17 142 39 283 71 641 114 1295
36 551 52 675 95 744 11 19 20 43 20 55 0 12 30 83 66 159 36 75 76 166 89
202 13 36 53 135 90 220 37 85 112 265 167 400 220 539 248 600 278 600 5 0
19 -28 33 -62z m3677 17 c11 -13 9 -20 -13 -43 -15 -15 -34 -50 -44 -77 l-17
-50 -13 34 c-17 41 -9 82 24 121 28 34 44 37 63 15z m-192 -30 c50 -57 52
-145 3 -145 -30 0 -52 35 -58 93 -10 94 6 108 55 52z m546 -76 c-57 -60 -94
-76 -78 -35 7 19 105 88 113 81 2 -3 -13 -24 -35 -46z m-4414 -46 c0 -17 -60
-124 -127 -228 -77 -120 -226 -382 -291 -511 -23 -45 -120 -220 -217 -390 -97
-169 -188 -332 -201 -363 -14 -30 -46 -78 -73 -106 -27 -28 -57 -67 -66 -86
-27 -52 -75 -114 -385 -499 -332 -414 -516 -656 -582 -767 -46 -77 -74 -154
-98 -263 -18 -84 -20 -90 -35 -90 -36 0 -111 134 -211 377 -56 137 -66 171
-76 258 -12 117 -5 665 12 850 21 237 72 483 132 640 48 124 182 398 232 473
89 134 323 337 531 461 58 34 114 76 125 92 12 16 25 29 29 29 15 0 32 -82 51
-257 29 -259 56 -377 108 -478 68 -133 183 -139 321 -18 75 66 176 186 202
242 12 25 57 96 99 156 42 61 89 131 103 157 55 96 418 375 417 321z"/>
<path d="M4413 12380 c-43 -18 -18 -80 32 -80 27 0 67 44 59 65 -9 23 -53 30
-91 15z"/>
<path d="M3778 11685 c-13 -30 3 -75 27 -75 26 0 38 48 20 76 -20 31 -33 30
-47 -1z"/>
<path d="M3224 10902 c-93 -79 -391 -387 -585 -602 -299 -332 -371 -428 -527
-695 -38 -66 -163 -268 -277 -450 -522 -830 -567 -905 -542 -905 31 0 147 158
443 605 117 176 259 386 315 467 57 81 181 263 274 405 324 491 400 588 791
1008 116 125 189 213 181 221 -3 3 -36 -21 -73 -54z"/>
<path d="M2227 9055 c-36 -78 -75 -181 -96 -255 -69 -236 -299 -844 -368 -970
-28 -51 -81 -110 -256 -282 -121 -120 -215 -218 -209 -218 14 0 219 153 339
253 173 144 221 221 338 547 111 309 242 702 260 781 9 42 15 100 13 130 l-3
54 -18 -40z"/>
<path d="M2351 8297 c-43 -100 -163 -544 -221 -817 -32 -153 -195 -799 -278
-1105 -27 -99 -47 -184 -45 -188 14 -24 62 91 171 415 86 251 121 376 162 578
17 85 65 299 106 475 110 468 151 685 130 685 -4 0 -15 -19 -25 -43z"/>
<path d="M5196 11337 c-15 -11 -16 -15 -4 -25 39 -32 245 -45 268 -17 17 21 4
34 -46 46 -60 13 -197 11 -218 -4z"/>
<path d="M5170 11171 c-59 -23 -90 -43 -90 -58 0 -35 204 -60 283 -34 42 14
72 45 63 66 -17 44 -171 60 -256 26z"/>
<path d="M5611 10481 c-93 -33 -135 -78 -92 -101 12 -6 72 -13 134 -16 132 -7
154 1 138 51 -5 17 -12 42 -15 58 -6 25 -10 27 -59 27 -28 -1 -76 -9 -106 -19z"/>
<path d="M2238 4815 c-174 -28 -339 -100 -478 -211 -133 -107 -315 -292 -329
-337 -19 -57 -10 -71 44 -64 62 9 211 68 297 118 39 23 108 59 154 80 76 35
103 54 92 65 -8 7 -82 -22 -236 -94 -81 -38 -164 -75 -185 -82 -94 -30 -54 43
78 143 126 95 405 234 496 246 75 10 193 3 477 -30 174 -21 194 -21 208 -7 14
14 12 18 -23 47 -65 54 -262 127 -310 115 -14 -4 -29 0 -38 10 -20 20 -121 20
-247 1z"/>
<path d="M3215 4579 c-152 -20 -98 -44 144 -64 202 -17 258 -29 405 -85 112
-42 140 -48 134 -27 -15 44 -203 120 -383 156 -131 25 -215 31 -300 20z"/>
<path d="M2615 4494 c-49 -13 -106 -28 -126 -34 -93 -26 -287 -186 -408 -335
-109 -134 -234 -334 -271 -433 -38 -102 -2 -76 103 73 211 299 456 535 667
640 86 43 162 94 155 105 -8 13 -13 12 -120 -16z"/>
<path d="M2995 4453 c9 -40 74 -148 175 -293 136 -195 269 -402 356 -554 43
-76 94 -155 112 -175 l33 -36 -6 30 c-7 35 -177 374 -278 555 -102 183 -201
324 -293 418 -86 87 -111 101 -99 55z"/>
<path d="M7322 4567 c-23 -23 -42 -49 -42 -56 0 -17 82 -171 91 -171 18 0 26
204 8 216 -6 3 -8 17 -5 30 9 35 -4 30 -52 -19z"/>
<path d="M7593 4574 c-7 -19 16 -68 32 -66 6 1 10 19 10 39 0 28 -5 39 -18 41
-9 2 -20 -4 -24 -14z"/>
<path d="M8343 4103 c-39 -15 7 -71 47 -58 26 8 25 30 -2 49 -24 17 -26 17
-45 9z"/>
<path d="M7493 3989 c-14 -5 -23 -17 -23 -30 0 -28 40 -99 56 -99 30 0 71 109
47 123 -20 11 -60 14 -80 6z"/>
<path d="M7952 3798 c-16 -16 -15 -68 1 -68 13 0 77 60 77 73 0 12 -65 8 -78
-5z"/>
<path d="M7469 3649 c-19 -35 -7 -140 20 -177 18 -26 20 -36 11 -47 -17 -21
-37 -19 -43 5 -8 29 -34 24 -52 -10 -9 -18 -23 -30 -35 -30 -27 0 -40 -30 -40
-94 0 -47 4 -57 26 -75 35 -27 48 -26 68 4 13 20 25 25 61 25 25 0 50 6 59 15
33 33 33 190 0 226 -11 12 -19 45 -23 86 -9 93 -27 118 -52 72z"/>
<path d="M7036 3625 c-3 -9 4 -25 15 -36 28 -28 103 -24 107 7 3 18 -1 20 -27
16 -17 -2 -39 2 -53 12 -28 20 -34 20 -42 1z"/>
<path d="M6756 3612 c-3 -6 3 -21 13 -33 16 -20 22 -22 33 -11 9 9 10 17 2 30
-13 20 -39 27 -48 14z"/>
<path d="M7062 3434 c-24 -16 -29 -48 -10 -60 8 -5 9 -2 5 9 -8 21 23 39 43
27 21 -13 -14 -48 -61 -60 -32 -9 -40 -17 -47 -43 -7 -28 -13 -32 -46 -35 -34
-3 -37 -1 -31 17 9 29 -52 94 -89 94 -32 0 -106 -32 -106 -45 0 -5 39 -28 88
-50 48 -23 105 -54 128 -70 34 -24 55 -30 116 -35 103 -8 108 -2 108 128 0 55
-5 109 -10 120 -13 23 -57 25 -88 3z"/>
<path d="M7415 3110 c-16 -11 -41 -20 -54 -20 l-23 0 28 -37 c17 -22 28 -49
28 -70 1 -37 4 -39 32 -18 18 13 18 15 2 45 -23 41 -23 56 3 91 24 34 23 35
-16 9z"/>
<path d="M7053 3024 c-7 -3 -13 -14 -13 -24 0 -23 19 -30 48 -17 42 19 8 59
-35 41z"/>
</g>
</svg>
